<?xml version="1.0" standalone="no"?>
<!DOCTYPE svg PUBLIC "-//W3C//DTD SVG 20010904//EN"
 "http://www.w3.org/TR/2001/REC-SVG-20010904/DTD/svg10.dtd">
<svg version="1.0" xmlns="http://www.w3.org/2000/svg"
 width="1024.000000pt" height="1024.000000pt" viewBox="0 0 1024.000000 1024.000000"
 preserveAspectRatio="xMidYMid meet">
<metadata>
Created by potrace 1.14, written by Peter Selinger 2001-2017
</metadata>
<g transform="translate(0.000000,1024.000000) scale(0.100000,-0.100000)"
fill="#000000" stroke="none">
<path d="M4767 10054 c-1 -1 -36 -5 -77 -9 -150 -12 -279 -24 -310 -30 -14 -3
-43 -7 -65 -10 -60 -8 -96 -13 -135 -20 -19 -4 -46 -8 -60 -10 -14 -2 -36 -7
-50 -10 -14 -3 -40 -7 -57 -10 -34 -4 -93 -14 -128 -22 -48 -10 -56 -11 -172
-29 -21 -3 -47 -8 -58 -11 -11 -3 -31 -8 -45 -9 -51 -7 -86 -13 -110 -19 -14
-3 -41 -8 -60 -10 -19 -3 -46 -7 -60 -10 -14 -3 -41 -8 -60 -11 -43 -6 -75
-12 -75 -14 0 -2 -27 -6 -90 -14 -16 -3 -30 -5 -30 -6 0 -2 -20 -5 -85 -14
-19 -3 -35 -5 -35 -6 0 -2 -22 -7 -70 -14 -22 -4 -78 -14 -125 -22 -47 -9 -96
-18 -110 -20 -48 -8 -85 -14 -110 -19 -14 -3 -37 -6 -52 -7 -16 -1 -28 -5 -28
-9 0 -5 -7 -6 -15 -3 -8 4 -23 3 -32 -1 -10 -5 -27 -9 -38 -10 -11 -1 -38 -6
-60 -10 -22 -4 -51 -8 -65 -9 -14 -2 -36 -6 -48 -10 -13 -4 -41 -9 -62 -11
-21 -2 -42 -5 -47 -8 -4 -3 -28 -8 -53 -11 -25 -3 -56 -8 -70 -11 -13 -2 -40
-7 -60 -10 -20 -3 -47 -7 -60 -10 -14 -3 -41 -8 -60 -11 -19 -4 -44 -9 -55
-11 -11 -2 -40 -7 -64 -9 -24 -3 -54 -9 -65 -13 -12 -5 -29 -7 -38 -6 -10 2
-18 0 -18 -3 0 -4 -12 -8 -27 -8 -16 -1 -41 -4 -58 -7 -16 -3 -59 -11 -95 -17
-89 -15 -105 -18 -105 -20 0 -3 -37 -9 -80 -14 -22 -3 -50 -7 -61 -10 -44 -10
-100 -18 -116 -18 -10 0 -20 -4 -23 -9 -4 -5 -10 -7 -15 -4 -5 3 -28 1 -52 -4
-24 -6 -55 -12 -70 -15 -15 -2 -33 -8 -39 -12 -8 -5 -9 -3 -4 6 5 9 4 11 -4 6
-10 -7 -32 -12 -81 -20 -18 -4 -22 24 46 -361 30 -170 57 -323 59 -340 3 -16
7 -41 10 -55 3 -14 7 -41 11 -60 8 -47 18 -104 54 -310 17 -96 33 -186 35
-200 3 -14 19 -104 36 -200 16 -96 39 -224 50 -285 10 -60 24 -135 29 -165 27
-146 277 -1567 286 -1625 2 -16 9 -50 14 -75 5 -25 16 -85 24 -135 8 -49 22
-128 30 -175 9 -47 18 -98 21 -115 5 -28 18 -101 29 -170 3 -16 19 -106 36
-200 16 -93 32 -183 35 -200 3 -16 7 -41 10 -55 3 -14 10 -52 15 -85 6 -33 20
-109 30 -170 32 -174 118 -663 151 -855 16 -96 32 -186 34 -200 3 -14 21 -115
40 -225 20 -110 38 -211 40 -225 3 -14 8 -41 10 -60 3 -19 10 -55 15 -80 5
-25 16 -85 24 -135 13 -71 64 -360 91 -515 3 -14 12 -68 21 -120 9 -52 18
-104 20 -115 4 -21 8 -39 25 -140 6 -33 12 -71 15 -85 2 -14 13 -74 24 -135
10 -60 26 -150 35 -200 23 -133 135 -766 140 -795 5 -25 45 -253 49 -279 2 -8
7 -16 13 -18 6 -2 75 8 154 22 79 14 155 28 169 30 374 66 542 95 570 100 19
3 42 8 50 10 8 2 31 6 50 9 19 3 46 8 60 10 14 3 144 26 290 51 507 88 487 84
484 108 -2 19 -15 87 -48 272 -3 17 -12 69 -20 117 -9 48 -18 97 -20 110 -3
13 -7 37 -10 53 -6 43 -25 156 -31 185 -15 74 -37 201 -42 240 -2 25 -8 47
-11 50 -4 3 -7 14 -8 25 -1 23 -10 85 -18 130 -13 67 -19 101 -21 115 -2 21
-18 113 -21 125 -1 6 -5 26 -8 45 -4 19 -14 73 -22 120 -9 47 -17 92 -18 100
-1 8 -6 38 -11 65 -5 28 -8 56 -7 63 2 6 -1 12 -5 12 -4 0 -9 21 -11 46 -1 26
-5 51 -9 57 -3 5 -7 26 -9 46 -1 20 -5 47 -9 61 -3 14 -8 39 -10 55 -9 57 -31
185 -40 225 -3 14 -7 42 -10 63 -3 21 -7 48 -10 60 -3 12 -7 34 -10 49 -3 16
-7 38 -9 50 -2 13 -10 57 -16 98 -7 41 -15 82 -18 90 -3 8 -5 18 -4 21 1 3 -8
55 -19 115 -11 60 -22 123 -24 139 -3 17 -18 104 -35 195 -52 284 -54 300 -38
301 7 0 20 2 28 4 8 1 53 10 100 18 82 16 123 23 185 33 17 2 44 7 60 11 17 3
39 7 50 8 11 2 47 8 80 14 33 6 74 13 90 16 17 3 41 8 55 10 62 13 77 15 105
20 17 2 71 11 120 20 50 9 101 18 115 20 14 3 35 7 46 9 12 2 39 7 60 11 22 3
62 11 89 16 58 10 98 17 140 24 28 4 43 7 105 20 14 3 41 7 61 9 19 2 44 6 55
9 10 4 35 9 54 13 86 15 93 16 195 39 39 9 78 17 88 18 9 1 17 4 17 7 0 3 8 6
18 7 21 1 49 8 121 29 31 9 63 18 71 19 8 2 44 13 80 24 36 11 68 21 72 21 4
0 29 10 54 21 26 10 57 20 70 21 13 1 24 6 24 9 0 4 15 11 33 14 17 4 37 11
42 15 6 4 29 14 53 21 23 6 42 16 42 21 0 4 3 7 8 6 10 -4 165 64 173 75 3 5
9 8 13 8 10 -2 163 77 234 120 35 22 68 39 72 39 5 0 10 3 12 8 5 10 128 92
139 92 6 0 8 -3 6 -7 -3 -5 -8 -33 -11 -64 -4 -31 -8 -65 -10 -75 -2 -11 -7
-46 -11 -79 -3 -32 -8 -62 -10 -65 -2 -3 -6 -34 -10 -70 -3 -36 -8 -72 -10
-80 -2 -8 -7 -44 -10 -80 -4 -36 -8 -67 -10 -70 -2 -3 -6 -30 -9 -60 -13 -105
-17 -138 -31 -220 -5 -30 -14 -100 -20 -153 -2 -21 -9 -63 -14 -95 -5 -31 -12
-82 -16 -112 -3 -30 -7 -66 -9 -80 -34 -207 -41 -280 -24 -281 24 -2 63 -7 93
-14 43 -9 75 -14 115 -21 85 -13 182 -30 215 -37 29 -7 117 -20 138 -21 9 0
17 -3 17 -7 0 -3 11 -5 25 -4 14 2 25 0 25 -4 0 -4 10 -7 23 -7 29 -1 102 -12
149 -23 20 -5 39 -6 42 -4 2 3 11 1 18 -3 7 -5 22 -9 33 -10 39 -4 90 -12 105
-18 8 -3 33 -8 55 -11 55 -7 100 -14 133 -20 26 -6 58 -11 112 -19 14 -2 25
-5 25 -6 0 -2 24 -7 72 -14 21 -3 60 -9 86 -14 55 -11 57 -8 73 78 4 25 8 47
9 50 9 31 16 60 19 83 3 15 7 35 10 45 3 9 7 34 11 56 3 21 7 41 9 45 4 5 13
54 21 106 2 11 4 21 5 23 3 2 4 6 13 47 3 17 9 48 12 70 3 22 8 48 11 57 5 16
10 40 20 88 28 136 58 279 83 399 17 80 33 154 36 165 2 12 7 32 10 46 3 14 7
36 10 50 2 14 9 50 15 80 6 30 13 64 15 75 2 11 16 74 30 140 31 147 37 177
38 193 0 6 3 12 7 12 3 0 6 8 6 18 1 17 8 55 24 127 5 22 11 57 14 79 4 21 8
42 11 46 2 4 7 22 9 41 3 19 10 52 15 74 6 22 13 56 16 75 3 19 17 85 30 145
13 61 27 126 30 145 11 62 13 75 15 75 1 0 4 11 6 25 10 52 13 65 14 65 1 0 3
9 5 20 2 11 7 36 11 55 4 19 8 42 10 50 4 22 17 84 20 95 1 6 5 21 8 35 3 14
7 36 10 50 4 14 13 61 22 105 23 121 32 160 34 160 1 0 3 11 6 25 11 63 37
192 54 265 10 44 26 121 35 170 9 50 19 97 22 105 4 8 6 18 5 21 -1 4 3 22 9
40 5 19 12 50 15 69 3 19 7 42 9 50 2 8 7 29 10 45 6 37 10 56 25 120 6 28 14
61 16 75 2 14 10 50 16 80 6 30 12 64 14 75 1 11 3 20 4 20 2 0 6 19 30 135
24 118 28 135 30 135 1 0 3 11 5 25 2 14 6 36 10 50 3 14 12 57 20 95 13 66
17 86 31 145 3 14 7 36 9 50 2 14 4 25 5 25 2 0 5 13 19 90 6 33 14 71 17 85
3 14 8 39 11 55 3 17 9 38 14 48 5 9 8 17 6 17 -3 0 4 39 14 88 11 48 21 98
24 112 2 14 16 81 30 150 15 69 28 134 30 145 1 11 3 20 4 20 3 0 9 29 27 120
3 17 10 50 15 75 18 77 18 80 6 81 -7 0 -21 3 -32 5 -33 8 -88 17 -112 18 -13
1 -23 3 -23 6 0 3 -12 7 -27 8 -16 1 -39 5 -53 8 -14 3 -52 9 -85 15 -33 5
-71 12 -85 15 -14 2 -38 6 -55 8 -16 2 -30 5 -30 6 0 2 -43 10 -150 27 -16 2
-41 6 -55 9 -23 5 -47 9 -105 19 -81 13 -134 23 -172 31 -16 3 -42 7 -59 8
-17 2 -36 6 -43 10 -6 4 -11 5 -11 3 0 -2 -21 0 -47 5 -27 5 -61 12 -78 14
-30 5 -57 10 -97 19 -13 2 -39 7 -58 9 -19 3 -51 8 -70 11 -19 3 -44 7 -55 9
-11 2 -31 6 -45 10 -14 4 -41 8 -60 10 -19 2 -42 6 -50 9 -8 3 -33 8 -55 11
-22 3 -51 7 -65 10 -14 3 -43 8 -65 11 -64 11 -79 14 -102 19 -13 3 -24 2 -27
-2 -5 -8 -16 -71 -22 -127 -5 -49 -13 -112 -19 -145 -9 -50 -18 -121 -29 -214
-3 -27 -10 -74 -16 -105 -9 -53 -20 -126 -23 -163 -1 -16 -2 -16 -17 0 -8 9
-22 28 -31 42 -36 56 -221 247 -325 336 -108 91 -376 274 -403 274 -5 0 -11 4
-13 8 -4 11 -172 92 -285 137 -48 20 -97 40 -108 44 -70 29 -301 96 -405 117
-41 9 -84 18 -95 20 -11 3 -31 6 -45 8 -14 3 -54 9 -90 15 -63 10 -105 15
-220 26 -55 6 -588 14 -593 9z m258 -1563 c28 -5 53 -7 58 -4 4 2 7 1 7 -4 0
-4 12 -9 27 -10 55 -3 221 -62 313 -110 265 -141 446 -376 554 -718 7 -22 13
-44 15 -50 1 -5 6 -26 11 -45 5 -19 11 -46 14 -60 2 -14 5 -26 7 -27 1 -2 3
-12 4 -23 1 -11 3 -21 5 -22 3 -5 7 -32 14 -89 4 -30 9 -66 11 -82 8 -40 8
-252 1 -322 -8 -77 -11 -96 -29 -180 -24 -106 -118 -308 -180 -389 -49 -63
-164 -179 -211 -214 -28 -20 -53 -39 -56 -43 -16 -19 -210 -121 -325 -169 -27
-11 -146 -51 -165 -55 -8 -2 -17 -4 -20 -5 -3 -1 -9 -3 -15 -4 -5 -1 -30 -8
-55 -15 -25 -7 -52 -15 -60 -16 -132 -28 -213 -43 -485 -90 -176 -31 -331 -58
-345 -60 -45 -8 -364 -64 -420 -75 -200 -36 -341 -60 -359 -60 -16 0 -21 7
-23 28 -2 35 -2 38 -23 142 -3 14 -7 39 -10 55 -2 17 -7 41 -10 55 -3 14 -8
43 -10 65 -3 22 -9 55 -14 74 -6 18 -10 36 -9 40 1 3 -2 22 -5 41 -15 78 -18
97 -23 133 -2 21 -8 47 -14 56 -5 10 -7 20 -5 23 3 3 0 29 -5 59 -6 30 -13 68
-15 84 -3 17 -12 64 -20 105 -8 41 -17 91 -19 110 -2 19 -6 44 -9 55 -3 11 -8
40 -12 65 -4 25 -9 54 -11 65 -2 11 -8 45 -14 75 -9 52 -11 68 -26 150 -4 19
-8 44 -9 55 -2 11 -6 36 -10 55 -9 45 -12 67 -19 110 -3 19 -12 70 -20 115 -9
44 -18 96 -21 115 -6 36 -11 67 -21 110 -3 14 -7 40 -9 59 -2 19 -9 57 -14 85
-6 28 -19 103 -30 166 -11 63 -23 131 -27 150 -4 19 -8 44 -9 56 -1 11 -4 24
-6 30 -9 17 -11 74 -2 75 4 0 17 2 28 4 11 2 36 6 55 9 19 3 46 8 60 11 28 6
58 11 110 19 19 3 46 8 60 11 14 3 39 7 55 9 36 5 95 15 115 21 8 2 33 7 55
10 23 3 52 8 65 11 14 3 36 7 50 9 14 2 36 6 50 9 13 3 40 8 60 11 20 3 47 8
60 10 37 8 92 17 120 20 14 1 25 3 25 4 0 2 40 10 85 16 14 1 25 4 25 5 0 1 9
3 20 5 99 14 122 18 140 25 11 4 28 6 38 5 9 -2 17 0 17 4 0 4 12 6 28 5 15
-1 36 2 47 6 11 4 43 11 70 14 51 7 81 12 124 21 14 2 63 7 110 11 47 3 88 8
90 10 8 7 345 -6 396 -15z"/>
<path d="M6937 2355 c-1 -2 -29 -6 -62 -9 -33 -4 -78 -11 -100 -17 -22 -5 -50
-12 -63 -15 -74 -16 -221 -83 -312 -143 -87 -56 -207 -168 -250 -231 -14 -19
-33 -44 -43 -55 -21 -23 -115 -212 -120 -240 -1 -11 -5 -24 -8 -30 -6 -10 -20
-58 -24 -85 -2 -8 -8 -40 -15 -70 -15 -69 -20 -289 -9 -355 5 -28 11 -63 14
-79 10 -61 25 -103 80 -221 62 -132 174 -278 287 -371 73 -61 222 -148 308
-179 144 -52 358 -96 459 -95 20 0 43 -1 51 -1 35 -4 187 12 244 26 147 34
318 113 420 195 61 48 164 153 207 210 64 85 142 246 165 340 11 41 21 77 24
80 3 3 6 14 7 25 1 11 6 49 10 85 19 172 4 335 -44 480 -63 189 -203 386 -363
510 -52 41 -56 44 -151 94 -128 69 -202 94 -379 127 -84 16 -322 33 -333 24z"/>
</g>
</svg>
