<?xml version="1.0" standalone="no"?>
<!DOCTYPE svg PUBLIC "-//W3C//DTD SVG 20010904//EN"
 "http://www.w3.org/TR/2001/REC-SVG-20010904/DTD/svg10.dtd">
<svg version="1.0" xmlns="http://www.w3.org/2000/svg"
 width="1024.000000pt" height="1024.000000pt" viewBox="0 0 1024.000000 1024.000000"
 preserveAspectRatio="xMidYMid meet">
<metadata>
Created by potrace 1.14, written by Peter Selinger 2001-2017
</metadata>
<g transform="translate(0.000000,1024.000000) scale(0.100000,-0.100000)"
fill="#000000" stroke="none">
<path d="M1418 9798 c-2 -7 -4 -2121 -3 -4698 l1 -4685 1307 -3 1307 -2 0
1585 c0 872 3 1585 8 1585 4 1 374 3 822 5 448 2 826 6 840 8 14 3 63 8 110
11 282 22 626 86 875 163 100 30 347 125 438 167 499 232 945 603 1214 1010
40 61 76 116 80 121 5 6 18 28 30 50 189 349 308 698 358 1050 2 11 6 38 9 60
6 43 13 111 22 215 7 88 7 385 -1 490 -8 114 -26 273 -40 355 -3 17 -8 46 -11
65 -25 157 -127 508 -185 635 -13 28 -24 52 -24 55 -3 17 -84 178 -136 268
-75 130 -192 301 -244 358 -5 6 -32 37 -60 69 -91 107 -217 228 -330 318 -33
27 -69 55 -79 64 -10 8 -67 47 -125 85 -58 39 -118 79 -133 89 -15 11 -29 19
-31 19 -3 0 -48 25 -102 55 -53 30 -99 55 -102 55 -3 0 -42 18 -87 39 -155 74
-556 211 -656 225 -14 2 -65 13 -115 24 -49 11 -107 23 -127 26 -61 10 -109
17 -127 21 -9 2 -44 6 -76 10 -33 4 -71 8 -85 10 -14 2 -61 7 -105 11 -44 3
-93 9 -110 12 -16 3 -996 7 -2176 9 -1745 3 -2147 1 -2151 -9z m3812 -2101
c108 -10 157 -16 230 -34 359 -83 582 -287 669 -613 26 -96 30 -120 38 -205
13 -130 8 -292 -11 -425 -17 -113 -71 -257 -133 -354 -141 -220 -374 -346
-723 -392 -25 -3 -321 -7 -657 -8 l-613 -2 0 1017 0 1018 28 3 c50 6 1096 1
1172 -5z"/>
</g>
</svg>
